<svg xmlns="http://www.w3.org/2000/svg" width="147.0mm" height="147.0mm" viewBox="0 0 147.0 147.0">
<rect x="0" y="0" width="147.0" height="147.0" fill="white"/>
<title>orpot disc: disc Ø127.0mm, hub Ø50.8mm, ramp 12.7mm x2, 1 turn(s), 4 ribs</title>
<polyline points="129.502,103.434 127.966,106.146 126.298,108.779 124.504,111.327 122.586,113.784 120.550,116.144 118.401,118.401 116.144,120.550 113.784,122.586 111.327,124.504 108.779,126.298 106.146,127.966 103.434,129.502 100.650,130.903 97.800,132.166 94.893,133.288 91.933,134.266 88.929,135.097 85.888,135.780 82.817,136.313 79.724,136.694 76.616,136.924 73.500,137.000 70.384,136.924 67.276,136.694 64.183,136.313 61.112,135.780 58.071,135.097 55.067,134.266 52.107,133.288 49.200,132.166 46.350,130.903 43.566,129.502 40.854,127.966 38.221,126.298 35.673,124.504 33.216,122.586 30.856,120.550 28.599,118.401 26.450,116.144 24.414,113.784 22.496,111.327 20.702,108.779 19.034,106.146 17.498,103.434 16.097,100.650 14.834,97.800 13.712,94.893 12.734,91.933 11.903,88.929 11.220,85.888 10.687,82.817 10.306,79.724 10.076,76.616 10.000,73.500 10.076,70.384 10.306,67.276 10.687,64.183 11.220,61.112 11.903,58.071 12.734,55.067 13.712,52.107 14.834,49.200 16.097,46.350 17.498,43.566 19.034,40.854 20.702,38.221 22.496,35.673 24.414,33.216 26.450,30.856 28.599,28.599 30.856,26.450 33.216,24.414 35.673,22.496 38.221,20.702 40.854,19.034 43.566,17.498 46.350,16.097 49.200,14.834 52.107,13.712 55.067,12.734 58.071,11.903 61.112,11.220 64.183,10.687 67.276,10.306 70.384,10.076 73.500,10.000 76.616,10.076 79.724,10.306 82.817,10.687 85.888,11.220 88.929,11.903 91.933,12.734 94.893,13.712 97.800,14.834 100.650,16.097 103.434,17.498 106.146,19.034 108.779,20.702 111.327,22.496 113.784,24.414 116.144,26.450 118.401,28.599 120.550,30.856 122.586,33.216 124.504,35.673 126.298,38.221 127.966,40.854 129.502,43.566 130.903,46.350 132.166,49.200 133.288,52.107 134.266,55.067 135.097,58.071 135.780,61.112 136.313,64.183 136.694,67.276 136.924,70.384 137.000,73.500 136.924,76.616 136.694,79.724 136.313,82.817 135.780,85.888 135.097,88.929 134.266,91.933 133.288,94.893 132.166,97.800 130.903,100.650 129.502,103.434" fill="none" stroke="#333" stroke-width="0.3"/>
<polyline points="103.900,71.950 93.900,71.950 93.900,75.050 103.900,75.050 103.900,71.950" fill="none" stroke="#333" stroke-width="0.3"/>
<polyline points="129.300,75.050 129.300,71.950 119.300,71.950 119.300,75.050 129.300,75.050" fill="none" stroke="#333" stroke-width="0.3"/>
<polyline points="106.600,75.050 116.600,75.050 116.600,71.950 106.600,71.950 106.600,75.050" fill="none" stroke="#333" stroke-width="0.3"/>
<polyline points="71.950,46.750 75.050,46.750 75.050,36.750 71.950,36.750 71.950,46.750" fill="none" stroke="#333" stroke-width="0.3"/>
<polyline points="71.950,24.050 71.950,34.050 75.050,34.050 75.050,24.050 71.950,24.050" fill="none" stroke="#333" stroke-width="0.3"/>
<polyline points="30.400,71.950 30.400,75.050 40.400,75.050 40.400,71.950 30.400,71.950" fill="none" stroke="#333" stroke-width="0.3"/>
<polyline points="53.100,71.950 43.100,71.950 43.100,75.050 53.100,75.050 53.100,71.950" fill="none" stroke="#333" stroke-width="0.3"/>
<polyline points="27.700,75.050 27.700,71.950 17.700,71.950 17.700,75.050 27.700,75.050" fill="none" stroke="#333" stroke-width="0.3"/>
<polyline points="75.050,122.950 75.050,112.950 71.950,112.950 71.950,122.950 75.050,122.950" fill="none" stroke="#333" stroke-width="0.3"/>
<polyline points="71.950,110.250 75.050,110.250 75.050,100.250 71.950,100.250 71.950,110.250" fill="none" stroke="#333" stroke-width="0.3"/>
<polyline points="73.500,48.100 73.168,48.049 72.835,48.003 72.501,47.961 72.165,47.924 71.828,47.891 71.491,47.862 71.152,47.838 70.812,47.819 70.471,47.804 70.130,47.793 69.787,47.787 69.444,47.785 69.101,47.789 68.756,47.796 68.411,47.809 68.066,47.826 67.720,47.847 67.374,47.873 67.028,47.904 66.681,47.940 66.334,47.980 65.987,48.025 65.640,48.075 65.293,48.130 64.946,48.189 64.600,48.253 64.253,48.321 63.907,48.395 63.561,48.473 63.215,48.556 62.870,48.644 62.526,48.736 62.182,48.834 61.839,48.936 61.497,49.042 61.155,49.154 60.814,49.270 60.474,49.391 60.136,49.517 59.798,49.648 59.461,49.783 59.126,49.923 58.792,50.068 58.459,50.217 58.128,50.371 57.798,50.530 57.469,50.694 57.142,50.862 56.817,51.035 56.494,51.212 56.172,51.394 55.853,51.581 55.535,51.772 55.219,51.968 54.905,52.169 54.594,52.373 54.284,52.583 53.977,52.797 53.672,53.015 53.370,53.238 53.070,53.465 52.772,53.697 52.477,53.933 52.185,54.173 51.895,54.418 51.608,54.667 51.324,54.920 51.043,55.177 50.765,55.439 50.490,55.704 50.218,55.974 49.949,56.248 49.683,56.526 49.420,56.808 49.161,57.093 48.905,57.383 48.653,57.677 48.404,57.974 48.158,58.276 47.917,58.581 47.678,58.890 47.444,59.202 47.213,59.518 46.986,59.838 46.763,60.161 46.544,60.488 46.329,60.818 46.118,61.152 45.911,61.489 45.708,61.829 45.510,62.172 45.315,62.519 45.125,62.869 44.940,63.222 44.758,63.578 44.581,63.937 44.409,64.299 44.241,64.663 44.078,65.031 43.919,65.401 43.765,65.774 43.615,66.150 43.471,66.528 43.331,66.909 43.196,67.292 43.066,67.678 42.941,68.066 42.821,68.456 42.705,68.849 42.595,69.243 42.490,69.640 42.390,70.039 42.295,70.439 42.205,70.842 42.121,71.246 42.041,71.653 41.967,72.060 41.899,72.470 41.835,72.881 41.777,73.293 41.724,73.707 41.677,74.122 41.635,74.539 41.599,74.956 41.568,75.375 41.542,75.795 41.523,76.216 41.508,76.638 41.500,77.060 41.496,77.484 41.499,77.908 41.507,78.332 41.521,78.758 41.540,79.183 41.565,79.609 41.596,80.036 41.632,80.462 41.674,80.889 41.722,81.316 41.776,81.742 41.835,82.169 41.900,82.596 41.971,83.022 42.047,83.448 42.130,83.874 42.218,84.299 42.312,84.724 42.411,85.148 42.517,85.571 42.628,85.994 42.745,86.416 42.867,86.837 42.996,87.256 43.130,87.675 43.270,88.093 43.415,88.509 43.567,88.924 43.724,89.338 43.887,89.750 44.055,90.161 44.229,90.569 44.409,90.977 44.595,91.382 44.786,91.786 44.982,92.187 45.185,92.587 45.393,92.984 45.606,93.380 45.825,93.773 46.050,94.164 46.280,94.552 46.515,94.938 46.756,95.321 47.002,95.702 47.254,96.079 47.511,96.455 47.773,96.827 48.041,97.196 48.314,97.562 48.592,97.925 48.876,98.285 49.164,98.642 49.458,98.996 49.757,99.346 50.060,99.692 50.369,100.035 50.683,100.375 51.002,100.710 51.325,101.042 51.653,101.371 51.987,101.695 52.325,102.015 52.667,102.332 53.015,102.644 53.366,102.952 53.723,103.256 54.084,103.555 54.449,103.850 54.819,104.141 55.193,104.427 55.572,104.709 55.954,104.986 56.341,105.259 56.732,105.526 57.127,105.789 57.526,106.047 57.929,106.300 58.336,106.548 58.747,106.791 59.162,107.029 59.580,107.262 60.002,107.490 60.427,107.712 60.856,107.929 61.288,108.140 61.724,108.347 62.163,108.547 62.605,108.742 63.051,108.932 63.499,109.116 63.951,109.294 64.405,109.467 64.862,109.633 65.323,109.794 65.786,109.949 66.251,110.099 66.719,110.242 67.190,110.379 67.663,110.510 68.138,110.635 68.616,110.754 69.096,110.867 69.578,110.974 70.062,111.074 70.548,111.168 71.036,111.256 71.525,111.338 72.017,111.413 72.510,111.482 73.004,111.544 73.500,111.600 73.997,111.649 74.496,111.692 74.996,111.729 75.497,111.759 75.999,111.782 76.502,111.799 77.005,111.809 77.510,111.812 78.015,111.809 78.521,111.799 79.027,111.783 79.534,111.759 80.041,111.729 80.549,111.693 81.056,111.649 81.564,111.599 82.071,111.542 82.579,111.479 83.086,111.408 83.593,111.331 84.099,111.247 84.605,111.156 85.111,111.058 85.616,110.954 86.120,110.843 86.623,110.725 87.125,110.600 87.626,110.468 88.127,110.330 88.625,110.185 89.123,110.033 89.619,109.875 90.114,109.709 90.607,109.537 91.099,109.359 91.589,109.173 92.076,108.981 92.562,108.782 93.046,108.577 93.528,108.365 94.008,108.146 94.485,107.921 94.960,107.689 95.433,107.450 95.902,107.206 96.370,106.954 96.834,106.696 97.296,106.432 97.754,106.161 98.210,105.884 98.663,105.601 99.112,105.311 99.558,105.015 100.001,104.713 100.440,104.405 100.876,104.090 101.308,103.770 101.736,103.443 102.161,103.110 102.581,102.771 102.998,102.427 103.411,102.076 103.819,101.720 104.224,101.358 104.624,100.990 105.019,100.616 105.410,100.237 105.797,99.852 106.179,99.461 106.556,99.065 106.929,98.664 107.297,98.257 107.659,97.845 108.017,97.428 108.370,97.005 108.717,96.578 109.060,96.145 109.396,95.707 109.728,95.264 110.054,94.817 110.375,94.365 110.690,93.907 110.999,93.446 111.303,92.979 111.601,92.508 111.893,92.033 112.179,91.553 112.459,91.069 112.733,90.581 113.001,90.088 113.263,89.592 113.518,89.091 113.767,88.587 114.010,88.079 114.247,87.566 114.476,87.051 114.700,86.531 114.917,86.008 115.127,85.482 115.330,84.952 115.527,84.419 115.717,83.883 115.900,83.344 116.076,82.802 116.246,82.256 116.408,81.708 116.563,81.158 116.711,80.604 116.852,80.048 116.986,79.490 117.113,78.929 117.232,78.366 117.344,77.800 117.449,77.233 117.547,76.663 117.637,76.092 117.719,75.519 117.795,74.944 117.862,74.368 117.923,73.790 117.975,73.210 118.021,72.629 118.058,72.047 118.088,71.464 118.110,70.880 118.125,70.295 118.132,69.709 118.131,69.123 118.123,68.535 118.106,67.948 118.082,67.359 118.051,66.771 118.011,66.182 117.964,65.593 117.909,65.005 117.846,64.416 117.775,63.827 117.697,63.239 117.610,62.651 117.516,62.064 117.414,61.477 117.304,60.891 117.187,60.306 117.061,59.722 116.928,59.139 116.787,58.557 116.638,57.976 116.481,57.396 116.317,56.818 116.145,56.242 115.965,55.667 115.777,55.094 115.581,54.523 115.378,53.953 115.167,53.386 114.949,52.821 114.723,52.259 114.489,51.698 114.247,51.141 113.998,50.585 113.742,50.033 113.477,49.483 113.206,48.936 112.927,48.393 112.640,47.852 112.346,47.314 112.045,46.780 111.736,46.249 111.420,45.722 111.097,45.199 110.767,44.679 110.429,44.163 110.084,43.650 109.732,43.142 109.374,42.638 109.008,42.138 108.635,41.643 108.255,41.151 107.869,40.665 107.475,40.183 107.075,39.705 106.669,39.232 106.255,38.765 105.835,38.302 105.409,37.844 104.976,37.391 104.537,36.944 104.091,36.502 103.639,36.065 103.181,35.634 102.717,35.209 102.247,34.789 101.771,34.374 101.289,33.966 100.801,33.564 100.307,33.167 99.808,32.777 99.303,32.393 98.792,32.015 98.276,31.644 97.754,31.279 97.228,30.920 96.696,30.568 96.158,30.223 95.616,29.884 95.069,29.552 94.517,29.227 93.960,28.909 93.398,28.598 92.832,28.294 92.261,27.997 91.686,27.707 91.106,27.425 90.522,27.150 89.934,26.882 89.342,26.622 88.746,26.369 88.146,26.124 87.542,25.887 86.934,25.657 86.323,25.435 85.708,25.221 85.090,25.015 84.469,24.816 83.844,24.626 83.216,24.443 82.586,24.269 81.952,24.103 81.316,23.945 80.677,23.795 80.035,23.654 79.391,23.520 78.744,23.395 78.095,23.279 77.445,23.171 76.792,23.071 76.137,22.980 75.480,22.897 74.822,22.823 74.162,22.757 73.500,22.700" fill="none" stroke="rgb(40, 90, 200)" stroke-width="0.4"/>
<polyline points="73.500,98.900 73.832,98.951 74.165,98.997 74.499,99.039 74.835,99.076 75.172,99.109 75.509,99.138 75.848,99.162 76.188,99.181 76.529,99.196 76.870,99.207 77.213,99.213 77.556,99.215 77.899,99.211 78.244,99.204 78.589,99.191 78.934,99.174 79.280,99.153 79.626,99.127 79.972,99.096 80.319,99.060 80.666,99.020 81.013,98.975 81.360,98.925 81.707,98.870 82.054,98.811 82.400,98.747 82.747,98.679 83.093,98.605 83.439,98.527 83.785,98.444 84.130,98.356 84.474,98.264 84.818,98.166 85.161,98.064 85.503,97.958 85.845,97.846 86.186,97.730 86.526,97.609 86.864,97.483 87.202,97.352 87.539,97.217 87.874,97.077 88.208,96.932 88.541,96.783 88.872,96.629 89.202,96.470 89.531,96.306 89.858,96.138 90.183,95.965 90.506,95.788 90.828,95.606 91.147,95.419 91.465,95.228 91.781,95.032 92.095,94.831 92.406,94.627 92.716,94.417 93.023,94.203 93.328,93.985 93.630,93.762 93.930,93.535 94.228,93.303 94.523,93.067 94.815,92.827 95.105,92.582 95.392,92.333 95.676,92.080 95.957,91.823 96.235,91.561 96.510,91.296 96.782,91.026 97.051,90.752 97.317,90.474 97.580,90.192 97.839,89.907 98.095,89.617 98.347,89.323 98.596,89.026 98.842,88.724 99.083,88.419 99.322,88.110 99.556,87.798 99.787,87.482 100.014,87.162 100.237,86.839 100.456,86.512 100.671,86.182 100.882,85.848 101.089,85.511 101.292,85.171 101.490,84.828 101.685,84.481 101.875,84.131 102.060,83.778 102.242,83.422 102.419,83.063 102.591,82.701 102.759,82.337 102.922,81.969 103.081,81.599 103.235,81.226 103.385,80.850 103.529,80.472 103.669,80.091 103.804,79.708 103.934,79.322 104.059,78.934 104.179,78.544 104.295,78.151 104.405,77.757 104.510,77.360 104.610,76.961 104.705,76.561 104.795,76.158 104.879,75.754 104.959,75.347 105.033,74.940 105.101,74.530 105.165,74.119 105.223,73.707 105.276,73.293 105.323,72.878 105.365,72.461 105.401,72.044 105.432,71.625 105.458,71.205 105.477,70.784 105.492,70.362 105.500,69.940 105.504,69.516 105.501,69.092 105.493,68.668 105.479,68.242 105.460,67.817 105.435,67.391 105.404,66.964 105.368,66.538 105.326,66.111 105.278,65.684 105.224,65.258 105.165,64.831 105.100,64.404 105.029,63.978 104.953,63.552 104.870,63.126 104.782,62.701 104.688,62.276 104.589,61.852 104.483,61.429 104.372,61.006 104.255,60.584 104.133,60.163 104.004,59.744 103.870,59.325 103.730,58.907 103.585,58.491 103.433,58.076 103.276,57.662 103.113,57.250 102.945,56.839 102.771,56.431 102.591,56.023 102.405,55.618 102.214,55.214 102.018,54.813 101.815,54.413 101.607,54.016 101.394,53.620 101.175,53.227 100.950,52.836 100.720,52.448 100.485,52.062 100.244,51.679 99.998,51.298 99.746,50.921 99.489,50.545 99.227,50.173 98.959,49.804 98.686,49.438 98.408,49.075 98.124,48.715 97.836,48.358 97.542,48.004 97.243,47.654 96.940,47.308 96.631,46.965 96.317,46.625 95.998,46.290 95.675,45.958 95.347,45.629 95.013,45.305 94.675,44.985 94.333,44.668 93.985,44.356 93.634,44.048 93.277,43.744 92.916,43.445 92.551,43.150 92.181,42.859 91.807,42.573 91.428,42.291 91.046,42.014 90.659,41.741 90.268,41.474 89.873,41.211 89.474,40.953 89.071,40.700 88.664,40.452 88.253,40.209 87.838,39.971 87.420,39.738 86.998,39.510 86.573,39.288 86.144,39.071 85.712,38.860 85.276,38.653 84.837,38.453 84.395,38.258 83.949,38.068 83.501,37.884 83.049,37.706 82.595,37.533 82.138,37.367 81.677,37.206 81.214,37.051 80.749,36.901 80.281,36.758 79.810,36.621 79.337,36.490 78.862,36.365 78.384,36.246 77.904,36.133 77.422,36.026 76.938,35.926 76.452,35.832 75.964,35.744 75.475,35.662 74.983,35.587 74.490,35.518 73.996,35.456 73.500,35.400 73.003,35.351 72.504,35.308 72.004,35.271 71.503,35.241 71.001,35.218 70.498,35.201 69.995,35.191 69.490,35.188 68.985,35.191 68.479,35.201 67.973,35.217 67.466,35.241 66.959,35.271 66.451,35.307 65.944,35.351 65.436,35.401 64.929,35.458 64.421,35.521 63.914,35.592 63.407,35.669 62.901,35.753 62.395,35.844 61.889,35.942 61.384,36.046 60.880,36.157 60.377,36.275 59.875,36.400 59.374,36.532 58.873,36.670 58.375,36.815 57.877,36.967 57.381,37.125 56.886,37.291 56.393,37.463 55.901,37.641 55.411,37.827 54.924,38.019 54.438,38.218 53.954,38.423 53.472,38.635 52.992,38.854 52.515,39.079 52.040,39.311 51.567,39.550 51.098,39.794 50.630,40.046 50.166,40.304 49.704,40.568 49.246,40.839 48.790,41.116 48.337,41.399 47.888,41.689 47.442,41.985 46.999,42.287 46.560,42.595 46.124,42.910 45.692,43.230 45.264,43.557 44.839,43.890 44.419,44.229 44.002,44.573 43.589,44.924 43.181,45.280 42.776,45.642 42.376,46.010 41.981,46.384 41.590,46.763 41.203,47.148 40.821,47.539 40.444,47.935 40.071,48.336 39.703,48.743 39.341,49.155 38.983,49.572 38.630,49.995 38.283,50.422 37.940,50.855 37.604,51.293 37.272,51.736 36.946,52.183 36.625,52.635 36.310,53.093 36.001,53.554 35.697,54.021 35.399,54.492 35.107,54.967 34.821,55.447 34.541,55.931 34.267,56.419 33.999,56.912 33.737,57.408 33.482,57.909 33.233,58.413 32.990,58.921 32.753,59.434 32.524,59.949 32.300,60.469 32.083,60.992 31.873,61.518 31.670,62.048 31.473,62.581 31.283,63.117 31.100,63.656 30.924,64.198 30.754,64.744 30.592,65.292 30.437,65.842 30.289,66.396 30.148,66.952 30.014,67.510 29.887,68.071 29.768,68.634 29.656,69.200 29.551,69.767 29.453,70.337 29.363,70.908 29.281,71.481 29.205,72.056 29.138,72.632 29.077,73.210 29.025,73.790 28.979,74.371 28.942,74.953 28.912,75.536 28.890,76.120 28.875,76.705 28.868,77.291 28.869,77.877 28.877,78.465 28.894,79.052 28.918,79.641 28.949,80.229 28.989,80.818 29.036,81.407 29.091,81.995 29.154,82.584 29.225,83.173 29.303,83.761 29.390,84.349 29.484,84.936 29.586,85.523 29.696,86.109 29.813,86.694 29.939,87.278 30.072,87.861 30.213,88.443 30.362,89.024 30.519,89.604 30.683,90.182 30.855,90.758 31.035,91.333 31.223,91.906 31.419,92.477 31.622,93.047 31.833,93.614 32.051,94.179 32.277,94.741 32.511,95.302 32.753,95.859 33.002,96.415 33.258,96.967 33.523,97.517 33.794,98.064 34.073,98.607 34.360,99.148 34.654,99.686 34.955,100.220 35.264,100.751 35.580,101.278 35.903,101.801 36.233,102.321 36.571,102.837 36.916,103.350 37.268,103.858 37.626,104.362 37.992,104.862 38.365,105.357 38.745,105.849 39.131,106.335 39.525,106.817 39.925,107.295 40.331,107.768 40.745,108.235 41.165,108.698 41.591,109.156 42.024,109.609 42.463,110.056 42.909,110.498 43.361,110.935 43.819,111.366 44.283,111.791 44.753,112.211 45.229,112.626 45.711,113.034 46.199,113.436 46.693,113.833 47.192,114.223 47.697,114.607 48.208,114.985 48.724,115.356 49.246,115.721 49.772,116.080 50.304,116.432 50.842,116.777 51.384,117.116 51.931,117.448 52.483,117.773 53.040,118.091 53.602,118.402 54.168,118.706 54.739,119.003 55.314,119.293 55.894,119.575 56.478,119.850 57.066,120.118 57.658,120.378 58.254,120.631 58.854,120.876 59.458,121.113 60.066,121.343 60.677,121.565 61.292,121.779 61.910,121.985 62.531,122.184 63.156,122.374 63.784,122.557 64.414,122.731 65.048,122.897 65.684,123.055 66.323,123.205 66.965,123.346 67.609,123.480 68.256,123.605 68.905,123.721 69.555,123.829 70.208,123.929 70.863,124.020 71.520,124.103 72.178,124.177 72.838,124.243 73.500,124.300" fill="none" stroke="rgb(200, 90, 40)" stroke-width="0.4"/>
</svg>