<svg xmlns="http://www.w3.org/2000/svg" width="274.5863401110106mm" height="144.71222130879mm" viewBox="0 0 274.5863401110106 144.71222130879">
<rect x="0" y="0" width="274.5863401110106" height="144.71222130879" fill="white"/>
<title>orpot both: rim Ø101.6mm..Ø131.6mm, base Ø50.8mm, strip 15.0mm, 1 turn(s)</title>
<polyline points="119.180,72.445 119.188,72.652 119.191,72.726 119.204,73.153 119.206,73.227 119.215,73.654 119.216,73.728 119.220,74.155 119.221,74.229 119.221,74.657 119.221,74.731 119.217,75.159 119.216,75.233 119.208,75.661 119.206,75.735 119.194,76.163 119.191,76.237 119.175,76.665 119.171,76.739 119.151,77.167 119.147,77.241 119.122,77.670 119.117,77.743 119.088,78.172 119.082,78.246 119.049,78.674 119.043,78.747 119.005,79.176 118.998,79.249 118.956,79.677 118.949,79.751 118.902,80.178 118.894,80.252 118.844,80.679 118.835,80.753 118.780,81.180 118.770,81.253 118.711,81.680 118.701,81.753 118.637,82.180 118.626,82.253 118.559,82.679 118.547,82.752 118.475,83.178 118.463,83.250 118.387,83.676 118.373,83.748 118.293,84.173 118.279,84.245 118.195,84.669 118.180,84.742 118.091,85.165 118.076,85.238 117.983,85.660 117.967,85.732 117.870,86.154 117.853,86.226 117.752,86.648 117.734,86.719 117.629,87.140 117.610,87.211 117.501,87.631 117.482,87.703 117.368,88.121 117.348,88.193 117.230,88.610 117.210,88.681 117.087,89.098 117.066,89.169 116.940,89.585 116.918,89.656 116.787,90.070 116.765,90.141 116.630,90.554 116.607,90.625 116.468,91.037 116.444,91.107 116.301,91.519 116.277,91.588 116.130,91.998 116.104,92.068 115.953,92.477 115.927,92.546 115.772,92.954 115.745,93.023 115.586,93.429 115.558,93.498 115.395,93.903 115.367,93.971 115.199,94.374 115.170,94.443 114.999,94.845 114.969,94.913 114.794,95.313 114.764,95.381 114.584,95.780 114.553,95.847 114.370,96.244 114.338,96.311 114.150,96.707 114.118,96.774 113.927,97.168 113.894,97.234 113.698,97.627 113.665,97.693 113.465,98.083 113.431,98.149 113.228,98.538 113.193,98.603 112.985,98.990 112.950,99.055 112.739,99.440 112.703,99.505 112.487,99.888 112.451,99.953 112.232,100.334 112.194,100.398 111.971,100.777 111.933,100.841 111.706,101.218 111.668,101.281 111.437,101.657 111.398,101.719 111.163,102.093 111.124,102.155 110.885,102.526 110.845,102.588 110.603,102.957 110.562,103.019 110.316,103.385 110.275,103.446 110.025,103.811 109.983,103.872 109.729,104.234 109.687,104.294 109.430,104.654 109.386,104.714 109.126,105.071 109.082,105.131 108.817,105.486 108.773,105.545 108.505,105.897 108.460,105.956 108.188,106.306 108.142,106.364 107.867,106.712 107.821,106.770 107.542,107.115 107.495,107.172 107.213,107.515 107.166,107.571 106.880,107.911 106.832,107.968 106.543,108.305 106.494,108.361 106.202,108.695 106.153,108.750 105.856,109.082 105.807,109.137 105.507,109.466 105.457,109.520 105.154,109.847 105.104,109.901 104.797,110.224 104.746,110.277 104.436,110.598 104.385,110.651 104.072,110.968 104.020,111.021 103.703,111.335 103.651,111.387 103.331,111.699 103.278,111.750 102.955,112.059 102.901,112.110 102.575,112.415 102.521,112.465 102.192,112.768 102.137,112.818 101.805,113.117 101.750,113.166 101.415,113.463 101.359,113.511 101.020,113.804 100.964,113.853 100.623,114.143 100.566,114.190 100.222,114.477 100.165,114.524 99.817,114.807 99.760,114.854 99.409,115.134 99.351,115.180 98.998,115.456 98.939,115.502 98.583,115.775 98.524,115.820 98.165,116.090 98.106,116.134 97.744,116.401 97.684,116.444 97.319,116.707 97.259,116.750 96.891,117.010 96.831,117.052 96.460,117.309 96.399,117.350 96.027,117.603 95.965,117.644 95.589,117.893 95.528,117.934 95.149,118.179 95.087,118.219 94.706,118.461 94.644,118.500 94.260,118.739 94.197,118.777 93.811,119.012 93.748,119.050 93.359,119.281 93.296,119.318 92.905,119.546 92.841,119.582 92.447,119.806 92.383,119.842 91.987,120.062 91.922,120.097 91.524,120.313 91.459,120.348 91.059,120.560 90.993,120.594 90.591,120.802 90.525,120.836 90.120,121.040 90.054,121.073 89.647,121.274 89.580,121.306 89.171,121.502 89.104,121.534 88.693,121.726 88.625,121.757 88.212,121.946 88.145,121.976 87.729,122.161 87.661,122.190 87.244,122.371 87.176,122.400 86.756,122.576 86.688,122.605 86.267,122.777 86.198,122.805 85.775,122.973 85.706,123.000 85.281,123.164 85.212,123.191 84.785,123.351 84.715,123.377 84.286,123.533 84.217,123.557 83.786,123.709 83.716,123.734 83.284,123.881 83.214,123.905 82.780,124.048 82.710,124.071 82.275,124.210 82.204,124.232 81.767,124.367 81.696,124.389 81.258,124.520 81.187,124.540 80.747,124.667 80.676,124.687 80.234,124.809 80.163,124.829 79.720,124.947 79.648,124.965 79.204,125.079 79.132,125.097 78.687,125.206 78.615,125.223 78.168,125.328 78.096,125.345 77.648,125.445 77.575,125.461 77.126,125.557 77.054,125.572 76.603,125.664 76.531,125.679 76.079,125.766 76.007,125.780 75.554,125.863 75.481,125.876 75.028,125.954 74.955,125.967 74.500,126.041 74.427,126.052 73.971,126.122 73.898,126.133 73.442,126.198 73.369,126.208 72.911,126.269 72.838,126.278 72.380,126.334 72.306,126.343 71.847,126.395 71.774,126.403 71.314,126.450 71.241,126.457 70.780,126.500 70.707,126.506 70.246,126.544 70.172,126.550 69.711,126.584 69.637,126.589 69.175,126.618 69.101,126.622 68.639,126.647 68.565,126.651 68.102,126.671 68.028,126.673 67.565,126.689 67.491,126.691 67.027,126.702 66.953,126.703 66.489,126.710 66.415,126.710 65.951,126.712 65.877,126.712 65.412,126.709 65.338,126.709 64.874,126.701 64.800,126.700 64.335,126.688 64.261,126.685 63.796,126.669 63.722,126.666 63.257,126.645 63.183,126.641 62.718,126.615 62.644,126.611 62.179,126.581 62.106,126.575 61.641,126.540 61.567,126.535 61.102,126.495 61.029,126.488 60.564,126.444 60.491,126.437 60.026,126.388 59.953,126.380 59.489,126.327 59.415,126.318 58.952,126.260 58.878,126.251 58.415,126.188 58.342,126.178 57.879,126.111 57.806,126.100 57.343,126.028 57.270,126.016 56.808,125.940 56.735,125.928 56.274,125.847 56.201,125.833 55.740,125.748 55.668,125.734 55.208,125.644 55.135,125.630 54.676,125.535 54.603,125.520 54.144,125.420 54.072,125.404 53.614,125.301 53.542,125.284 53.085,125.176 53.013,125.158 52.557,125.045 52.485,125.027 52.030,124.910 51.958,124.891 51.504,124.769 51.433,124.749 50.979,124.623 50.908,124.603 50.456,124.471 50.385,124.451 49.933,124.315 49.863,124.293 49.413,124.153 49.342,124.131 48.893,123.986 48.823,123.963 48.375,123.814 48.305,123.790 47.859,123.637 47.789,123.613 47.344,123.454 47.274,123.429 46.830,123.267 46.761,123.241 46.319,123.074 46.249,123.048 45.809,122.876 45.740,122.849 45.300,122.673 45.232,122.646 44.794,122.465 44.726,122.437 44.289,122.252 44.221,122.223 43.787,122.034 43.719,122.004 43.286,121.811 43.219,121.780 42.787,121.583 42.720,121.552 42.291,121.350 42.224,121.318 41.796,121.111 41.730,121.079 41.304,120.868 41.238,120.835 40.814,120.620 40.748,120.586 40.326,120.367 40.261,120.333 39.841,120.109 39.775,120.074 39.357,119.846 39.293,119.811 38.877,119.579 38.812,119.542 38.398,119.306 38.334,119.269 37.923,119.029 37.859,118.991 37.449,118.747 37.386,118.708 36.979,118.460 36.916,118.421 36.511,118.168 36.448,118.129 36.046,117.872 35.984,117.832 35.583,117.571 35.521,117.530 35.123,117.265 35.062,117.224 34.667,116.955 34.606,116.913 34.213,116.640 34.152,116.597 33.762,116.320 33.702,116.277 33.314,115.996 33.254,115.952 32.869,115.667 32.809,115.623 32.427,115.334 32.368,115.289 31.988,114.996 31.930,114.951 31.552,114.654 31.494,114.608 31.120,114.308 31.062,114.261 30.691,113.957 30.634,113.910 30.265,113.601 30.208,113.554 29.842,113.242 29.786,113.193 29.423,112.878 29.368,112.829 29.008,112.510 28.952,112.460 28.595,112.137 28.541,112.087 28.187,111.761 28.133,111.710 27.782,111.380 27.728,111.329 27.380,110.995 27.327,110.943 26.982,110.606 26.930,110.554 26.588,110.213 26.536,110.160 26.198,109.816 26.146,109.763 25.811,109.414 25.760,109.361 25.428,109.009 25.378,108.955 25.049,108.600 24.999,108.546 24.674,108.187 24.625,108.132 24.303,107.771 24.254,107.715 23.936,107.350 23.887,107.294 23.572,106.926 23.525,106.869 23.213,106.498 23.166,106.441 22.858,106.066 22.812,106.009 22.507,105.631 22.461,105.573 22.161,105.192 22.115,105.133 21.818,104.749 21.773,104.690 21.480,104.303 21.435,104.244 21.146,103.853 21.102,103.794 20.816,103.400 20.773,103.340 20.491,102.943 20.448,102.883 20.170,102.484 20.128,102.423 19.853,102.020 19.812,101.959 19.541,101.554 19.500,101.492 19.233,101.084 19.193,101.022 18.930,100.611 18.891,100.549 18.632,100.135 18.593,100.072 18.338,99.656 18.299,99.593 18.048,99.173 18.011,99.110 17.764,98.688 17.727,98.624 17.484,98.200 17.447,98.135 17.208,97.709 17.173,97.644 16.938,97.214 16.903,97.149 16.672,96.717 16.638,96.652 16.411,96.218 16.377,96.152 16.155,95.715 16.122,95.649 15.904,95.210 15.871,95.143 15.657,94.702 15.625,94.635 15.416,94.191 15.385,94.124 15.179,93.678 15.149,93.611 14.948,93.163 14.918,93.095 14.721,92.645 14.692,92.577 14.500,92.124 14.471,92.056 14.283,91.601 14.255,91.533 14.072,91.076 14.045,91.007 13.865,90.549 13.839,90.480 13.664,90.019 13.638,89.950 13.468,89.487 13.443,89.418 13.277,88.953 13.253,88.883 13.092,88.417 13.068,88.347 12.911,87.879 12.888,87.809 12.736,87.339 12.714,87.269 12.566,86.797 12.545,86.726 12.402,86.253 12.381,86.182 12.242,85.707 12.222,85.636 12.088,85.160 12.069,85.089 11.940,84.611 11.921,84.540 11.796,84.060 11.778,83.989 11.658,83.508 11.641,83.436 11.526,82.954 11.509,82.882 11.399,82.398 11.383,82.326 11.277,81.841 11.262,81.769 11.161,81.283 11.146,81.211 11.050,80.723 11.036,80.651 10.945,80.163 10.931,80.090 10.845,79.600 10.832,79.528 10.751,79.037 10.739,78.964 10.662,78.473 10.651,78.399 10.579,77.907 10.568,77.834 10.501,77.340 10.491,77.267 10.429,76.773 10.420,76.699 10.362,76.204 10.354,76.131 10.301,75.635 10.294,75.561 10.246,75.065 10.239,74.991 10.196,74.494 10.190,74.420 10.152,73.922 10.146,73.849 10.113,73.350 10.109,73.276 10.080,72.777 10.076,72.704 10.053,72.204 10.050,72.130 10.031,71.630 10.029,71.556 10.015,71.056 10.014,70.982 10.005,70.482 10.004,70.408 10.000,69.907 10.000,69.833 10.001,69.332 10.002,69.258 10.008,68.756 10.009,68.682 10.020,68.181 10.022,68.107 10.038,67.605 10.041,67.531 10.062,67.030 10.065,66.956 10.091,66.454 10.095,66.380 10.126,65.879 10.131,65.805 10.167,65.304 10.172,65.230 10.213,64.728 10.220,64.655 10.265,64.154 10.272,64.080 10.323,63.579 10.331,63.506 10.387,63.005 10.395,62.931 10.456,62.431 10.465,62.358 10.531,61.858 10.541,61.785 10.611,61.285 10.622,61.212 10.697,60.713 10.709,60.640 10.789,60.142 10.801,60.069 10.887,59.571 10.899,59.498 10.990,59.001 11.003,58.928 11.099,58.432 11.113,58.359 11.213,57.863 11.228,57.791 11.333,57.296 11.349,57.224 11.459,56.730 11.475,56.658 11.590,56.164 11.607,56.092 11.727,55.600 11.745,55.528 11.870,55.037 11.888,54.965 12.018,54.475 12.037,54.404 12.172,53.914 12.192,53.843 12.331,53.355 12.352,53.284 12.496,52.797 12.518,52.726 12.667,52.241 12.689,52.170 12.843,51.686 12.866,51.615 13.024,51.132 13.048,51.062 13.211,50.580 13.236,50.510 13.404,50.030 13.429,49.960 13.602,49.482 13.628,49.412 13.806,48.935 13.832,48.866 14.015,48.390 14.042,48.321 14.229,47.847 14.257,47.778 14.449,47.306 14.477,47.237 14.674,46.767 14.703,46.699 14.905,46.229 14.935,46.162 15.141,45.694 15.171,45.627 15.383,45.162 15.414,45.094 15.629,44.631 15.661,44.564 15.882,44.102 15.914,44.036 16.139,43.576 16.172,43.510 16.402,43.053 16.435,42.987 16.670,42.531 16.704,42.466 16.943,42.012 16.977,41.947 17.221,41.496 17.256,41.431 17.505,40.982 17.541,40.918 17.793,40.471 17.830,40.407 18.087,39.962 18.124,39.898 18.386,39.456 18.424,39.393 18.690,38.953 18.729,38.890 18.999,38.453 19.038,38.391 19.313,37.956 19.353,37.894 19.633,37.461 19.673,37.400 19.957,36.970 19.998,36.909 20.286,36.482 20.327,36.421 20.620,35.996 20.662,35.936 20.959,35.514 21.002,35.454 21.303,35.035 21.346,34.975 21.651,34.559 21.695,34.500 22.005,34.087 22.049,34.028 22.363,33.617 22.408,33.559 22.726,33.152 22.772,33.094 23.093,32.689 23.140,32.632 23.466,32.230 23.513,32.173 23.843,31.775 23.890,31.718 24.224,31.323 24.272,31.267 24.611,30.875 24.659,30.819 25.001,30.430 25.051,30.375 25.397,29.989 25.446,29.934 25.796,29.552 25.847,29.498 26.201,29.118 26.251,29.065 26.609,28.689 26.661,28.636 27.022,28.263 27.074,28.210 27.440,27.841 27.492,27.789 27.861,27.424 27.914,27.372 28.287,27.010 28.340,26.959 28.717,26.600 28.771,26.550 29.152,26.195 29.206,26.145 29.590,25.793 29.645,25.744 30.033,25.396 30.088,25.347 30.479,25.003 30.535,24.954 30.930,24.614 30.986,24.566 31.384,24.230 31.441,24.182 31.843,23.850 31.900,23.803 32.305,23.474 32.363,23.428 32.772,23.102 32.830,23.057 33.242,22.736 33.300,22.691 33.716,22.373 33.775,22.329 34.194,22.016 34.253,21.972 34.675,21.662 34.735,21.619 35.160,21.314 35.220,21.271 35.648,20.970 35.709,20.928 36.141,20.631 36.202,20.589 36.636,20.296 36.698,20.255 37.135,19.967 37.197,19.926 37.638,19.642 37.700,19.602 38.144,19.322 38.206,19.283 38.653,19.007 38.716,18.968 39.165,18.696 39.229,18.658 39.681,18.391 39.745,18.354 40.200,18.091 40.264,18.054 40.722,17.796 40.787,17.759 41.247,17.505 41.312,17.470 41.775,17.220 41.841,17.185 42.307,16.940 42.372,16.906 42.841,16.665 42.907,16.632 43.378,16.395 43.444,16.363 43.917,16.131 43.984,16.099 44.460,15.872 44.527,15.840 45.005,15.617 45.073,15.587 45.553,15.369 45.621,15.339 46.104,15.125 46.172,15.096 46.657,14.887 46.725,14.858 47.213,14.654 47.281,14.626 47.771,14.427 47.840,14.400 48.332,14.205 48.401,14.178 48.895,13.989 48.964,13.963 49.461,13.778 49.530,13.752 50.028,13.572 50.098,13.548 50.598,13.372 50.668,13.348 51.170,13.178 51.240,13.155 51.744,12.989 51.815,12.967 52.320,12.806 52.391,12.784 52.899,12.628 52.969,12.607 53.479,12.456 53.550,12.436 54.061,12.290 54.132,12.270 54.645,12.130 54.716,12.110 55.230,11.975 55.302,11.956 55.818,11.825 55.889,11.808 56.407,11.682 56.478,11.665 56.997,11.544 57.069,11.528 57.589,11.412 57.662,11.397 58.183,11.286 58.255,11.271 58.778,11.166 58.851,11.152 59.375,11.051 59.447,11.038 59.972,10.943 60.045,10.930 60.572,10.840 60.644,10.828 61.172,10.743 61.245,10.732 61.773,10.652 61.846,10.641 62.376,10.567 62.449,10.557 62.979,10.488 63.053,10.478 63.584,10.414 63.657,10.406 64.189,10.347 64.263,10.339 64.796,10.285 64.869,10.278 65.403,10.230 65.477,10.224 66.011,10.180 66.085,10.175 66.619,10.137 66.693,10.132 67.229,10.099 67.302,10.095 67.838,10.068 67.912,10.064 68.449,10.042 68.523,10.039 69.059,10.023 69.133,10.021 69.671,10.009 69.745,10.008 70.282,10.002 70.356,10.001 70.894,10.000 70.968,10.000 71.506,10.005 71.580,10.005 72.118,10.015 72.192,10.017 72.730,10.032 72.804,10.034 73.342,10.054 73.416,10.057 73.955,10.083 74.028,10.087 74.567,10.118 74.641,10.122 75.179,10.158 75.253,10.164 75.791,10.205 75.864,10.211 76.402,10.258 76.476,10.265 77.013,10.317 77.087,10.324 77.624,10.382 77.698,10.390 78.235,10.453 78.308,10.462 78.845,10.530 78.918,10.540 79.454,10.613 79.527,10.623 80.063,10.702 80.136,10.713 80.671,10.797 80.744,10.809 81.278,10.898 81.351,10.911 81.885,11.005 81.957,11.019 82.490,11.119 82.563,11.133 83.095,11.238 83.167,11.252 83.699,11.363 83.771,11.378 84.301,11.494 84.374,11.510 84.903,11.631 84.975,11.648 85.504,11.774 85.575,11.792 86.103,11.923 86.174,11.942 86.701,12.079 86.772,12.097 87.297,12.239 87.369,12.259 87.893,12.406 87.964,12.427 88.487,12.579 88.557,12.600 89.079,12.758 89.149,12.780 89.670,12.943 89.740,12.965 90.259,13.133 90.329,13.156 90.846,13.330 90.916,13.353 91.432,13.532 91.501,13.556 92.016,13.740 92.085,13.765 92.598,13.954 92.667,13.980 93.178,14.173 93.247,14.200 93.756,14.399 93.824,14.426 94.332,14.630 94.400,14.658 94.906,14.867 94.974,14.896 95.478,15.110 95.545,15.139 96.047,15.358 96.115,15.388 96.615,15.612 96.682,15.643 97.180,15.872 97.247,15.904 97.742,16.138 97.809,16.170 98.302,16.409 98.369,16.441 98.860,16.686 98.926,16.719 99.415,16.968 99.481,17.002 99.968,17.256 100.033,17.290 100.518,17.549 100.583,17.584 101.065,17.848 101.130,17.884 101.609,18.152 101.674,18.189 102.151,18.462 102.215,18.499 102.690,18.778 102.753,18.815 103.226,19.098 103.289,19.137 103.758,19.424 103.821,19.463 104.288,19.756 104.351,19.795 104.815,20.093 104.877,20.133 105.338,20.435 105.400,20.475 105.859,20.782 105.920,20.823 106.376,21.135 106.436,21.177 106.889,21.492 106.950,21.535 107.400,21.855 107.460,21.898 107.907,22.223 107.966,22.267 108.410,22.597 108.469,22.641 108.910,22.975 108.969,23.020 109.407,23.358 109.465,23.404 109.899,23.747 109.957,23.793 110.389,24.140 110.446,24.187 110.874,24.538 110.931,24.585 111.356,24.941 111.412,24.989 111.833,25.349 111.889,25.398 112.307,25.762 112.363,25.811 112.777,26.180 112.832,26.229 113.243,26.603 113.298,26.652 113.705,27.030 113.759,27.080 114.163,27.462 114.217,27.513 114.617,27.898 114.670,27.950 115.067,28.339 115.120,28.391 115.513,28.785 115.565,28.838 115.954,29.235 116.005,29.288 116.391,29.690 116.442,29.744 116.823,30.149 116.874,30.203 117.252,30.613 117.301,30.667 117.675,31.081 117.725,31.136 118.095,31.553 118.144,31.609 118.510,32.030 118.558,32.086 118.920,32.511 118.967,32.567 119.325,32.996 119.373,33.052 119.726,33.485 119.773,33.542 120.123,33.978 120.169,34.036 120.514,34.475 120.560,34.534 120.901,34.977 120.946,35.035 121.283,35.482 121.327,35.541 121.660,35.991 121.704,36.051 122.032,36.504 122.075,36.564 122.400,37.021 122.442,37.082 122.762,37.542 122.804,37.603 123.119,38.066 123.160,38.128 123.471,38.594 123.512,38.656 123.818,39.126 123.858,39.188 124.160,39.662 124.200,39.724 124.497,40.201 124.536,40.263 124.829,40.743 124.867,40.806 125.155,41.289 125.193,41.352 125.476,41.838 125.513,41.902 125.792,42.391 125.828,42.455 126.103,42.946 126.138,43.011 126.408,43.505 126.443,43.570 126.707,44.068 126.742,44.133 127.001,44.633 127.035,44.699 127.290,45.201 127.323,45.268 127.573,45.773 127.606,45.839 127.851,46.347 127.883,46.414 128.123,46.925 128.154,46.992 128.390,47.505 128.420,47.572 128.650,48.088 128.680,48.156 128.906,48.674 128.935,48.742 129.155,49.262 129.184,49.330 129.399,49.853 129.427,49.922 129.637,50.447 129.664,50.516 129.869,51.043 129.896,51.112 130.096,51.642 130.121,51.711 130.316,52.243 130.341,52.313 130.531,52.847 130.555,52.916 130.740,53.453 130.764,53.522 130.943,54.061 130.966,54.131 131.140,54.671 131.162,54.741 131.331,55.283 131.353,55.354 131.516,55.898 131.537,55.968 131.695,56.514 131.716,56.585 131.869,57.132 131.888,57.204 132.036,57.753 132.054,57.824 132.197,58.375 132.215,58.447 132.352,58.999 132.369,59.071 132.500,59.624 132.517,59.696 132.643,60.252 132.659,60.324 132.780,60.881 132.795,60.953 132.910,61.511 132.925,61.584 133.034,62.143 133.048,62.216 133.152,62.776 133.166,62.849 133.264,63.411 133.277,63.484 133.370,64.047 133.382,64.120 133.469,64.684 133.480,64.757 133.563,65.323 133.573,65.396 133.649,65.962 133.659,66.036 133.730,66.603 133.739,66.676 133.804,67.244 133.813,67.318 133.872,67.887 133.880,67.960 133.934,68.530 133.941,68.604 133.990,69.175 133.996,69.248 134.039,69.819 134.044,69.893 134.081,70.465 134.086,70.539 134.118,71.111 134.122,71.185 134.148,71.758 119.180,72.445" fill="none" stroke="#b03020" stroke-width="0.3"/>
<polyline points="119.129,71.727 119.111,71.411 119.079,70.913 119.041,70.415 118.998,69.918 118.951,69.422 118.899,68.926 118.842,68.431 118.780,67.937 118.713,67.444 118.642,66.952 118.565,66.460 118.484,65.970 118.398,65.481 118.308,64.993 118.212,64.506 118.112,64.020 118.007,63.535 117.897,63.052 117.783,62.570 117.664,62.089 117.540,61.610 117.412,61.132 117.279,60.656 117.141,60.181 116.999,59.708 116.852,59.237 116.701,58.767 116.545,58.299 116.384,57.833 116.219,57.369 116.050,56.906 115.876,56.446 115.697,55.987 115.515,55.530 115.327,55.076 115.136,54.623 114.940,54.173 114.740,53.724 114.535,53.278 114.326,52.834 114.113,52.393 113.896,51.954 113.674,51.517 113.448,51.082 113.219,50.650 112.984,50.221 112.746,49.794 112.504,49.369 112.258,48.948 112.007,48.528 111.753,48.112 111.495,47.698 111.233,47.287 110.967,46.879 110.697,46.474 110.423,46.071 110.145,45.672 109.864,45.275 109.578,44.881 109.289,44.491 108.997,44.103 108.701,43.718 108.401,43.337 108.097,42.959 107.790,42.584 107.479,42.212 107.165,41.843 106.848,41.478 106.527,41.116 106.202,40.757 105.874,40.402 105.543,40.050 105.209,39.702 104.871,39.357 104.530,39.016 104.186,38.678 103.839,38.343 103.489,38.013 103.136,37.685 102.779,37.362 102.420,37.042 102.057,36.726 101.692,36.414 101.324,36.105 100.953,35.801 100.579,35.500 100.203,35.202 99.823,34.909 99.441,34.620 99.057,34.334 98.669,34.053 98.280,33.775 97.887,33.502 97.492,33.232 97.095,32.967 96.696,32.705 96.293,32.448 95.889,32.195 95.483,31.945 95.074,31.700 94.663,31.459 94.249,31.223 93.834,30.990 93.417,30.762 92.997,30.538 92.576,30.318 92.153,30.102 91.727,29.891 91.300,29.684 90.871,29.481 90.441,29.283 90.008,29.089 89.574,28.899 89.139,28.714 88.701,28.533 88.262,28.357 87.822,28.185 87.380,28.017 86.937,27.854 86.492,27.695 86.047,27.541 85.599,27.391 85.151,27.246 84.701,27.105 84.251,26.969 83.799,26.837 83.346,26.710 82.892,26.587 82.437,26.469 81.981,26.355 81.525,26.246 81.067,26.141 80.609,26.041 80.150,25.946 79.690,25.855 79.230,25.769 78.769,25.687 78.307,25.610 77.845,25.537 77.383,25.469 76.920,25.406 76.457,25.347 75.993,25.293 75.529,25.243 75.065,25.198 74.601,25.158 74.136,25.122 73.672,25.091 73.207,25.064 72.743,25.042 72.278,25.025 71.814,25.012 71.349,25.004 70.885,25.000 70.421,25.001 69.957,25.006 69.494,25.016 69.031,25.031 68.568,25.050 68.106,25.074 67.644,25.102 67.183,25.135 66.722,25.172 66.262,25.214 65.803,25.260 65.344,25.311 64.886,25.366 64.429,25.426 63.973,25.490 63.518,25.558 63.063,25.632 62.610,25.709 62.157,25.791 61.706,25.877 61.255,25.968 60.806,26.063 60.358,26.163 59.912,26.267 59.466,26.375 59.022,26.488 58.579,26.604 58.138,26.726 57.698,26.851 57.259,26.981 56.822,27.115 56.387,27.253 55.953,27.395 55.521,27.542 55.090,27.692 54.661,27.847 54.234,28.006 53.809,28.170 53.386,28.337 52.964,28.508 52.545,28.684 52.127,28.863 51.711,29.046 51.298,29.234 50.886,29.425 50.477,29.621 50.070,29.820 49.665,30.023 49.262,30.230 48.861,30.441 48.463,30.656 48.067,30.874 47.674,31.096 47.282,31.323 46.894,31.552 46.508,31.786 46.124,32.023 45.743,32.264 45.364,32.508 44.988,32.756 44.615,33.008 44.244,33.263 43.876,33.521 43.511,33.783 43.149,34.049 42.789,34.318 42.433,34.590 42.079,34.866 41.728,35.145 41.380,35.427 41.035,35.713 40.693,36.002 40.354,36.294 40.018,36.589 39.686,36.887 39.356,37.189 39.030,37.493 38.706,37.801 38.386,38.111 38.069,38.425 37.756,38.741 37.446,39.061 37.139,39.383 36.835,39.708 36.535,40.036 36.238,40.367 35.945,40.700 35.655,41.036 35.368,41.375 35.085,41.717 34.806,42.061 34.530,42.407 34.257,42.756 33.989,43.108 33.724,43.462 33.462,43.818 33.204,44.177 32.950,44.538 32.700,44.902 32.453,45.267 32.210,45.635 31.971,46.005 31.735,46.378 31.504,46.752 31.276,47.128 31.052,47.507 30.832,47.887 30.615,48.270 30.403,48.654 30.194,49.040 29.990,49.428 29.789,49.818 29.593,50.209 29.400,50.603 29.211,50.998 29.027,51.394 28.846,51.792 28.669,52.192 28.497,52.593 28.328,52.996 28.164,53.400 28.003,53.805 27.847,54.212 27.695,54.620 27.546,55.030 27.402,55.440 27.262,55.852 27.127,56.265 26.995,56.679 26.868,57.094 26.744,57.510 26.625,57.927 26.510,58.345 26.399,58.764 26.293,59.184 26.190,59.605 26.092,60.026 25.998,60.448 25.909,60.871 25.823,61.294 25.742,61.718 25.665,62.143 25.592,62.568 25.523,62.993 25.459,63.419 25.398,63.845 25.342,64.272 25.291,64.699 25.243,65.126 25.200,65.554 25.161,65.981 25.126,66.409 25.096,66.837 25.069,67.265 25.047,67.692 25.029,68.120 25.016,68.548 25.006,68.976 25.001,69.403 25.000,69.831 25.003,70.258 25.011,70.684 25.022,71.111 25.038,71.537 25.058,71.963 25.082,72.388 25.111,72.813 25.143,73.237 25.180,73.660 25.221,74.083 25.266,74.506 25.315,74.928 25.368,75.348 25.425,75.769 25.487,76.188 25.552,76.606 25.622,77.024 25.696,77.441 25.773,77.857 25.855,78.271 25.941,78.685 26.031,79.097 26.125,79.509 26.223,79.919 26.325,80.328 26.430,80.736 26.540,81.142 26.654,81.548 26.772,81.951 26.893,82.354 27.019,82.755 27.148,83.154 27.281,83.552 27.418,83.949 27.559,84.344 27.704,84.737 27.852,85.128 28.004,85.518 28.160,85.907 28.320,86.293 28.483,86.677 28.650,87.060 28.821,87.441 28.995,87.820 29.173,88.197 29.355,88.572 29.540,88.945 29.729,89.316 29.921,89.685 30.117,90.052 30.316,90.416 30.519,90.779 30.726,91.139 30.935,91.497 31.148,91.853 31.365,92.206 31.584,92.557 31.808,92.906 32.034,93.252 32.264,93.596 32.497,93.937 32.733,94.276 32.972,94.612 33.215,94.946 33.460,95.277 33.709,95.605 33.961,95.931 34.216,96.254 34.474,96.575 34.735,96.893 34.999,97.208 35.265,97.520 35.535,97.829 35.808,98.136 36.083,98.439 36.362,98.740 36.643,99.038 36.927,99.333 37.213,99.625 37.503,99.914 37.795,100.199 38.089,100.482 38.386,100.762 38.686,101.039 38.988,101.312 39.293,101.582 39.601,101.850 39.910,102.114 40.222,102.375 40.537,102.632 40.854,102.886 41.173,103.137 41.495,103.385 41.818,103.630 42.144,103.871 42.472,104.108 42.803,104.343 43.135,104.574 43.469,104.801 43.806,105.025 44.144,105.246 44.485,105.463 44.827,105.677 45.171,105.887 45.517,106.093 45.865,106.297 46.215,106.496 46.566,106.692 46.919,106.884 47.274,107.073 47.631,107.258 47.989,107.440 48.348,107.618 48.709,107.792 49.072,107.963 49.436,108.130 49.802,108.293 50.169,108.452 50.537,108.608 50.906,108.760 51.277,108.909 51.649,109.053 52.022,109.194 52.397,109.331 52.772,109.465 53.149,109.594 53.527,109.720 53.905,109.842 54.285,109.960 54.665,110.074 55.047,110.185 55.429,110.291 55.812,110.394 56.196,110.493 56.580,110.588 56.966,110.680 57.352,110.767 57.738,110.851 58.125,110.930 58.513,111.006 58.901,111.078 59.290,111.146 59.679,111.211 60.068,111.271 60.458,111.328 60.848,111.380 61.238,111.429 61.629,111.474 62.020,111.515 62.411,111.552 62.802,111.585 63.193,111.615 63.584,111.640 63.975,111.662 64.366,111.680 64.757,111.694 65.148,111.704 65.539,111.710 65.930,111.712 66.320,111.711 66.710,111.705 67.100,111.696 67.489,111.683 67.879,111.666 68.267,111.646 68.655,111.621 69.043,111.593 69.430,111.561 69.817,111.525 70.203,111.485 70.588,111.442 70.973,111.394 71.357,111.343 71.741,111.289 72.123,111.230 72.505,111.168 72.885,111.102 73.265,111.032 73.644,110.959 74.022,110.882 74.399,110.801 74.775,110.717 75.150,110.629 75.524,110.537 75.897,110.442 76.268,110.343 76.638,110.241 77.007,110.134 77.375,110.025 77.741,109.912 78.106,109.795 78.470,109.675 78.832,109.551 79.193,109.424 79.552,109.293 79.910,109.159 80.266,109.021 80.621,108.880 80.974,108.736 81.325,108.588 81.675,108.437 82.023,108.282 82.369,108.124 82.713,107.963 83.056,107.799 83.397,107.631 83.736,107.460 84.072,107.286 84.408,107.109 84.741,106.928 85.072,106.744 85.401,106.558 85.728,106.368 86.052,106.174 86.375,105.978 86.696,105.779 87.014,105.577 87.331,105.372 87.645,105.163 87.956,104.952 88.266,104.738 88.573,104.521 88.878,104.301 89.180,104.078 89.480,103.853 89.778,103.624 90.073,103.393 90.366,103.159 90.656,102.923 90.944,102.683 91.229,102.441 91.511,102.197 91.791,101.949 92.069,101.699 92.343,101.447 92.615,101.192 92.885,100.934 93.151,100.674 93.415,100.412 93.676,100.147 93.934,99.880 94.190,99.610 94.443,99.338 94.692,99.064 94.939,98.787 95.183,98.508 95.425,98.227 95.663,97.944 95.898,97.659 96.130,97.371 96.360,97.082 96.586,96.790 96.809,96.496 97.030,96.201 97.247,95.903 97.461,95.603 97.672,95.302 97.880,94.998 98.084,94.693 98.286,94.386 98.485,94.077 98.680,93.767 98.872,93.454 99.061,93.140 99.246,92.825 99.429,92.508 99.608,92.189 99.784,91.868 99.956,91.547 100.126,91.223 100.292,90.898 100.454,90.572 100.614,90.245 100.770,89.916 100.923,89.585 101.072,89.254 101.218,88.921 101.361,88.587 101.500,88.252 101.636,87.916 101.768,87.578 101.897,87.240 102.022,86.900 102.145,86.560 102.263,86.218 102.379,85.876 102.490,85.532 102.599,85.188 102.704,84.843 102.805,84.497 102.903,84.151 102.997,83.803 103.088,83.455 103.176,83.107 103.260,82.757 103.340,82.407 103.417,82.057 103.490,81.706 103.560,81.355 103.627,81.003 103.690,80.650 103.749,80.298 103.805,79.945 103.857,79.591 103.906,79.238 103.951,78.884 103.993,78.530 104.031,78.176 104.066,77.821 104.097,77.467 104.125,77.113 104.149,76.758 104.170,76.404 104.187,76.049 104.201,75.695 104.211,75.341 104.218,74.986 104.221,74.633 104.221,74.279 104.217,73.925 104.210,73.572 104.199,73.219 104.185,72.867 104.165,72.478 119.129,71.727" fill="none" stroke="#b03020" stroke-width="0.3"/>
<polyline points="201.698,43.621 201.409,43.528 201.119,43.439 200.828,43.352 200.534,43.269 200.239,43.189 199.942,43.113 199.643,43.040 199.343,42.971 199.042,42.905 198.739,42.842 198.434,42.784 198.128,42.728 197.821,42.677 197.512,42.629 197.202,42.584 196.891,42.543 196.578,42.506 196.265,42.473 195.950,42.443 195.634,42.418 195.318,42.395 195.000,42.377 194.681,42.363 194.362,42.352 194.041,42.345 193.720,42.343 193.398,42.344 193.075,42.348 192.752,42.357 192.428,42.370 192.104,42.387 191.779,42.408 191.453,42.432 191.127,42.461 190.801,42.494 190.475,42.531 190.148,42.572 189.821,42.617 189.494,42.666 189.167,42.719 188.839,42.776 188.512,42.837 188.185,42.902 187.858,42.972 187.531,43.045 187.204,43.123 186.877,43.205 186.551,43.291 186.225,43.381 185.900,43.475 185.575,43.573 185.250,43.676 184.926,43.783 184.603,43.893 184.280,44.008 183.958,44.128 183.637,44.251 183.317,44.378 182.997,44.510 182.679,44.646 182.361,44.785 182.045,44.929 181.729,45.077 181.415,45.230 181.102,45.386 180.790,45.546 180.480,45.711 180.171,45.880 179.863,46.052 179.557,46.229 179.253,46.410 178.950,46.595 178.648,46.784 178.348,46.977 178.050,47.174 177.754,47.375 177.460,47.580 177.167,47.789 176.877,48.002 176.588,48.218 176.302,48.439 176.018,48.664 175.735,48.892 175.456,49.125 175.178,49.361 174.902,49.601 174.629,49.845 174.359,50.092 174.091,50.344 173.825,50.599 173.562,50.858 173.302,51.120 173.044,51.386 172.789,51.656 172.537,51.929 172.288,52.206 172.041,52.487 171.798,52.771 171.557,53.058 171.319,53.349 171.085,53.643 170.854,53.941 170.625,54.242 170.400,54.546 170.179,54.854 169.960,55.165 169.745,55.479 169.533,55.796 169.325,56.117 169.120,56.440 168.919,56.767 168.721,57.097 168.527,57.429 168.337,57.765 168.150,58.103 167.967,58.445 167.788,58.789 167.613,59.136 167.442,59.486 167.274,59.838 167.110,60.193 166.951,60.551 166.795,60.912 166.644,61.274 166.497,61.640 166.353,62.007 166.214,62.378 166.079,62.750 165.949,63.125 165.823,63.502 165.701,63.881 165.583,64.262 165.470,64.646 165.361,65.031 165.257,65.419 165.157,65.808 165.062,66.200 164.971,66.593 164.885,66.988 164.803,67.384 164.726,67.783 164.654,68.183 164.587,68.584 164.524,68.987 164.466,69.392 164.413,69.797 164.364,70.205 164.321,70.613 164.282,71.023 164.248,71.434 164.219,71.846 164.195,72.259 164.176,72.673 164.161,73.088 164.152,73.504 164.148,73.920 164.149,74.338 164.155,74.756 164.165,75.175 164.181,75.594 164.202,76.014 164.229,76.434 164.260,76.855 164.296,77.276 164.338,77.697 164.384,78.118 164.436,78.540 164.493,78.962 164.555,79.383 164.622,79.805 164.695,80.227 164.772,80.648 164.855,81.069 164.943,81.490 165.037,81.910 165.135,82.330 165.239,82.750 165.348,83.169 165.462,83.587 165.582,84.004 165.706,84.421 165.836,84.837 165.971,85.252 166.111,85.666 166.257,86.080 166.408,86.492 166.563,86.902 166.725,87.312 166.891,87.720 167.062,88.127 167.239,88.533 167.421,88.937 167.608,89.340 167.800,89.741 167.997,90.140 168.199,90.538 168.407,90.933 168.619,91.327 168.837,91.719 169.059,92.109 169.287,92.497 169.520,92.882 169.758,93.266 170.000,93.647 170.248,94.026 170.501,94.403 170.758,94.777 171.020,95.148 171.288,95.517 171.560,95.883 171.837,96.247 172.119,96.608 172.405,96.966 172.696,97.321 172.992,97.673 173.293,98.022 173.598,98.368 173.908,98.711 174.223,99.051 174.542,99.387 174.866,99.720 175.194,100.050 175.526,100.376 175.863,100.699 176.205,101.018 176.550,101.334 176.900,101.646 177.255,101.954 177.613,102.258 177.976,102.559 178.343,102.855 178.714,103.148 179.089,103.436 179.468,103.721 179.851,104.001 180.238,104.277 180.629,104.549 181.024,104.817 181.422,105.080 181.825,105.339 182.231,105.593 182.640,105.843 183.053,106.088 183.470,106.329 183.890,106.565 184.314,106.797 184.741,107.023 185.172,107.245 185.605,107.462 186.042,107.674 186.483,107.881 186.926,108.083 187.372,108.281 187.821,108.473 188.274,108.659 188.729,108.841 189.187,109.018 189.648,109.189 190.111,109.355 190.577,109.516 191.046,109.671 191.517,109.821 191.991,109.965 192.467,110.104 192.946,110.238 193.426,110.366 193.909,110.488 194.394,110.605 194.882,110.716 195.371,110.821 195.862,110.920 196.355,111.014 196.850,111.102 197.346,111.185 197.845,111.261 198.344,111.331 198.846,111.396 199.349,111.455 199.853,111.507 200.358,111.554 200.865,111.595 201.373,111.630 201.882,111.658 202.393,111.681 202.904,111.697 203.416,111.708 203.929,111.712 204.442,111.710 204.956,111.702 205.471,111.688 205.987,111.668 206.503,111.641 207.019,111.608 207.535,111.569 208.052,111.524 208.569,111.472 209.086,111.414 209.603,111.350 210.120,111.280 210.637,111.203 211.153,111.120 211.669,111.031 212.185,110.935 212.701,110.833 213.216,110.725 213.730,110.610 214.243,110.489 214.756,110.362 215.268,110.229 215.779,110.089 216.289,109.943 216.798,109.790 217.305,109.631 217.812,109.466 218.317,109.295 218.821,109.117 219.323,108.933 219.824,108.743 220.323,108.547 220.820,108.344 221.316,108.135 221.810,107.920 222.302,107.699 222.791,107.471 223.279,107.238 223.765,106.998 224.248,106.752 224.729,106.500 225.207,106.242 225.684,105.978 226.157,105.708 226.628,105.431 227.096,105.149 227.561,104.861 228.024,104.567 228.484,104.267 228.940,103.961 229.394,103.649 229.844,103.332 230.291,103.008 230.735,102.679 231.175,102.344 231.612,102.003 232.046,101.657 232.475,101.305 232.901,100.948 233.324,100.585 233.742,100.216 234.157,99.842 234.568,99.463 234.974,99.078 235.377,98.688 235.775,98.292 236.169,97.891 236.559,97.486 236.944,97.074 237.325,96.658 237.702,96.237 238.074,95.810 238.441,95.379 238.803,94.943 239.161,94.502 239.514,94.056 239.862,93.605 240.205,93.150 240.543,92.689 240.876,92.225 241.204,91.755 241.526,91.282 241.843,90.804 242.155,90.321 242.461,89.834 242.762,89.343 243.058,88.848 243.348,88.348 243.632,87.845 243.911,87.337 244.183,86.826 244.450,86.310 244.712,85.791 244.967,85.268 245.216,84.742 245.460,84.211 245.697,83.678 245.928,83.140 246.153,82.600 246.372,82.056 246.584,81.509 246.791,80.958 246.990,80.405 247.184,79.848 247.371,79.289 247.552,78.726 247.726,78.161 247.893,77.593 248.054,77.022 248.208,76.449 248.356,75.873 248.497,75.295 248.631,74.714 248.758,74.131 248.879,73.546 248.992,72.959 249.099,72.370 249.199,71.779 249.292,71.186 249.378,70.591 249.456,69.994 249.528,69.396 249.593,68.797 249.655,68.151 264.586,69.582 264.520,70.272 264.511,70.361 264.437,71.050 264.427,71.139 264.344,71.826 264.333,71.915 264.242,72.601 264.230,72.690 264.131,73.373 264.118,73.462 264.011,74.143 263.997,74.232 263.882,74.911 263.867,75.000 263.744,75.677 263.728,75.765 263.597,76.440 263.579,76.528 263.441,77.201 263.422,77.289 263.276,77.959 263.256,78.047 263.102,78.715 263.081,78.802 262.919,79.467 262.897,79.554 262.727,80.217 262.705,80.303 262.527,80.963 262.503,81.050 262.318,81.707 262.293,81.793 262.100,82.447 262.074,82.533 261.874,83.183 261.847,83.269 261.639,83.917 261.611,84.002 261.396,84.647 261.367,84.731 261.144,85.373 261.114,85.457 260.884,86.095 260.853,86.179 260.615,86.814 260.583,86.897 260.338,87.528 260.305,87.612 260.053,88.239 260.019,88.322 259.759,88.945 259.724,89.028 259.458,89.647 259.422,89.729 259.148,90.345 259.111,90.427 258.831,91.038 258.793,91.120 258.505,91.727 258.466,91.808 258.172,92.412 258.132,92.492 257.830,93.091 257.789,93.171 257.481,93.766 257.439,93.846 257.124,94.436 257.082,94.515 256.760,95.101 256.716,95.180 256.388,95.761 256.344,95.839 256.009,96.416 255.963,96.493 255.622,97.066 255.575,97.142 255.227,97.710 255.180,97.786 254.826,98.349 254.778,98.425 254.417,98.983 254.368,99.058 254.001,99.611 253.951,99.685 253.578,100.233 253.527,100.307 253.148,100.850 253.097,100.923 252.711,101.460 252.659,101.533 252.268,102.065 252.214,102.137 251.817,102.664 251.763,102.736 251.360,103.258 251.305,103.328 250.896,103.845 250.840,103.915 250.426,104.425 250.369,104.495 249.949,105.000 249.892,105.069 249.466,105.568 249.408,105.636 248.977,106.130 248.917,106.197 248.481,106.686 248.421,106.752 247.979,107.235 247.918,107.300 247.472,107.777 247.410,107.842 246.958,108.313 246.895,108.377 246.438,108.842 246.375,108.905 245.913,109.364 245.849,109.427 245.382,109.880 245.317,109.942 244.846,110.388 244.780,110.450 244.303,110.890 244.237,110.950 243.756,111.384 243.689,111.444 243.203,111.872 243.135,111.931 242.645,112.352 242.577,112.411 242.082,112.826 242.013,112.883 241.513,113.292 241.444,113.348 240.940,113.750 240.870,113.806 240.362,114.202 240.291,114.256 239.779,114.646 239.707,114.700 239.191,115.082 239.119,115.135 238.599,115.511 238.526,115.563 238.003,115.933 237.929,115.984 237.401,116.347 237.327,116.397 236.796,116.753 236.721,116.803 236.186,117.152 236.111,117.200 235.573,117.543 235.497,117.590 234.955,117.926 234.878,117.973 234.333,118.301 234.256,118.347 233.708,118.669 233.630,118.714 233.079,119.028 233.001,119.072 232.446,119.380 232.367,119.423 231.810,119.724 231.730,119.766 231.170,120.060 231.090,120.101 230.527,120.387 230.447,120.428 229.881,120.707 229.800,120.746 229.231,121.019 229.150,121.057 228.579,121.322 228.497,121.360 227.923,121.618 227.841,121.654 227.265,121.905 227.183,121.940 226.604,122.184 226.521,122.219 225.941,122.455 225.858,122.488 225.275,122.718 225.191,122.750 224.606,122.972 224.522,123.004 223.936,123.218 223.851,123.249 223.263,123.456 223.178,123.486 222.588,123.686 222.502,123.714 221.911,123.907 221.825,123.934 221.232,124.120 221.146,124.146 220.551,124.324 220.465,124.350 219.868,124.520 219.782,124.545 219.184,124.708 219.098,124.731 218.499,124.888 218.412,124.910 217.812,125.059 217.725,125.080 217.124,125.221 217.036,125.241 216.434,125.375 216.346,125.394 215.744,125.521 215.656,125.539 215.052,125.659 214.964,125.675 214.360,125.787 214.271,125.803 213.667,125.908 213.578,125.923 212.973,126.020 212.884,126.034 212.278,126.124 212.190,126.136 211.584,126.219 211.495,126.230 210.888,126.306 210.799,126.316 210.193,126.384 210.104,126.393 209.497,126.454 209.408,126.462 208.802,126.516 208.712,126.523 208.106,126.569 208.016,126.575 207.410,126.614 207.321,126.619 206.715,126.650 206.625,126.654 206.020,126.678 205.930,126.681 205.326,126.698 205.236,126.700 204.632,126.709 204.542,126.710 203.938,126.712 203.849,126.712 203.246,126.707 203.156,126.706 202.554,126.693 202.464,126.691 201.863,126.672 201.774,126.668 201.174,126.642 201.084,126.637 200.485,126.603 200.395,126.598 199.798,126.557 199.708,126.550 199.112,126.502 199.022,126.495 198.427,126.440 198.338,126.431 197.744,126.369 197.655,126.359 197.062,126.290 196.973,126.279 196.383,126.203 196.294,126.191 195.705,126.108 195.616,126.095 195.029,126.005 194.940,125.990 194.355,125.893 194.266,125.878 193.683,125.774 193.594,125.758 193.013,125.648 192.925,125.630 192.346,125.513 192.258,125.494 191.681,125.370 191.593,125.351 191.018,125.220 190.931,125.199 190.358,125.062 190.271,125.040 189.701,124.896 189.614,124.873 189.046,124.722 188.959,124.698 188.394,124.541 188.308,124.516 187.745,124.352 187.659,124.326 187.099,124.156 187.014,124.129 186.457,123.952 186.371,123.924 185.817,123.740 185.732,123.712 185.181,123.522 185.096,123.492 184.548,123.295 184.463,123.265 183.918,123.062 183.834,123.030 183.292,122.821 183.208,122.788 182.670,122.573 182.586,122.540 182.051,122.318 181.968,122.283 181.436,122.056 181.354,122.020 180.825,121.787 180.743,121.750 180.218,121.510 180.136,121.473 179.615,121.227 179.534,121.188 179.016,120.937 178.935,120.897 178.421,120.640 178.341,120.599 177.830,120.336 177.751,120.295 177.244,120.026 177.165,119.983 176.662,119.709 176.583,119.665 176.085,119.385 176.006,119.341 175.512,119.055 175.434,119.009 174.944,118.718 174.867,118.672 174.380,118.375 174.304,118.328 173.821,118.025 173.745,117.977 173.267,117.670 173.192,117.621 172.719,117.308 172.644,117.258 172.175,116.940 172.100,116.889 171.636,116.565 171.562,116.513 171.102,116.185 171.029,116.132 170.573,115.799 170.501,115.745 170.050,115.407 169.978,115.352 169.532,115.009 169.461,114.954 169.019,114.605 168.949,114.549 168.512,114.196 168.442,114.139 168.010,113.781 167.941,113.723 167.514,113.361 167.446,113.302 167.024,112.935 166.956,112.875 166.539,112.504 166.472,112.443 166.060,112.067 165.994,112.006 165.586,111.625 165.521,111.564 165.119,111.179 165.054,111.116 164.657,110.727 164.594,110.663 164.202,110.270 164.139,110.206 163.752,109.808 163.690,109.743 163.309,109.341 163.247,109.276 162.872,108.870 162.811,108.803 162.441,108.394 162.381,108.327 162.016,107.913 161.957,107.845 161.597,107.428 161.539,107.359 161.185,106.938 161.127,106.869 160.779,106.444 160.722,106.374 160.380,105.946 160.324,105.875 159.986,105.443 159.931,105.372 159.600,104.937 159.546,104.865 159.220,104.426 159.167,104.354 158.847,103.912 158.794,103.838 158.480,103.393 158.428,103.320 158.120,102.871 158.069,102.797 157.766,102.345 157.717,102.270 157.420,101.816 157.371,101.740 157.080,101.283 157.032,101.207 156.747,100.747 156.700,100.670 156.420,100.207 156.374,100.130 156.101,99.664 156.056,99.586 155.789,99.118 155.744,99.040 155.483,98.569 155.440,98.490 155.184,98.017 155.142,97.937 154.893,97.462 154.852,97.382 154.608,96.904 154.568,96.823 154.331,96.343 154.291,96.262 154.060,95.780 154.022,95.698 153.797,95.214 153.760,95.132 153.541,94.646 153.504,94.563 153.292,94.075 153.256,93.992 153.050,93.502 153.015,93.419 152.815,92.927 152.782,92.843 152.588,92.350 152.555,92.266 152.367,91.771 152.336,91.686 152.154,91.190 152.124,91.105 151.948,90.607 151.919,90.521 151.750,90.022 151.721,89.936 151.558,89.435 151.531,89.350 151.374,88.848 151.348,88.761 151.197,88.258 151.172,88.172 151.028,87.667 151.004,87.581 150.866,87.075 150.842,86.988 150.711,86.482 150.689,86.395 150.563,85.888 150.542,85.800 150.423,85.292 150.403,85.204 150.290,84.696 150.271,84.608 150.164,84.099 150.146,84.010 150.046,83.501 150.029,83.412 149.935,82.902 149.919,82.813 149.832,82.303 149.817,82.214 149.735,81.703 149.722,81.614 149.646,81.103 149.634,81.014 149.565,80.503 149.553,80.413 149.491,79.902 149.480,79.813 149.424,79.301 149.414,79.212 149.364,78.701 149.356,78.611 149.311,78.100 149.304,78.010 149.266,77.499 149.260,77.409 149.228,76.899 149.223,76.809 149.198,76.299 149.194,76.209 149.175,75.699 149.172,75.609 149.158,75.100 149.157,75.010 149.150,74.502 149.149,74.411 149.148,73.904 149.148,73.813 149.153,73.307 149.155,73.216 149.166,72.710 149.169,72.620 149.186,72.115 149.190,72.025 149.213,71.520 149.218,71.430 149.247,70.927 149.253,70.837 149.288,70.335 149.295,70.245 149.336,69.744 149.344,69.654 149.392,69.155 149.401,69.065 149.454,68.567 149.464,68.477 149.523,67.980 149.534,67.890 149.599,67.395 149.612,67.306 149.682,66.812 149.696,66.722 149.773,66.230 149.787,66.141 149.869,65.651 149.885,65.562 149.973,65.073 149.990,64.984 150.084,64.497 150.101,64.408 150.201,63.923 150.220,63.835 150.325,63.352 150.345,63.264 150.456,62.783 150.477,62.695 150.594,62.216 150.616,62.128 150.738,61.651 150.761,61.564 150.888,61.089 150.912,61.002 151.046,60.529 151.071,60.443 151.210,59.973 151.236,59.886 151.380,59.418 151.407,59.332 151.557,58.867 151.585,58.781 151.740,58.318 151.769,58.233 151.929,57.773 151.959,57.688 152.125,57.230 152.156,57.145 152.327,56.691 152.359,56.606 152.535,56.154 152.569,56.070 152.750,55.621 152.784,55.538 152.970,55.091 153.006,55.008 153.197,54.565 153.233,54.482 153.430,54.042 153.467,53.959 153.669,53.522 153.707,53.440 153.913,53.006 153.953,52.925 154.164,52.494 154.204,52.413 154.420,51.985 154.461,51.905 154.682,51.480 154.724,51.400 154.950,50.979 154.993,50.900 155.224,50.482 155.268,50.403 155.503,49.989 155.548,49.911 155.787,49.500 155.833,49.422 156.078,49.015 156.125,48.937 156.373,48.534 156.421,48.457 156.674,48.057 156.723,47.981 156.981,47.585 157.030,47.509 157.292,47.117 157.343,47.042 157.609,46.653 157.661,46.579 157.931,46.194 157.984,46.120 158.258,45.739 158.312,45.666 158.590,45.289 158.645,45.216 158.927,44.843 158.983,44.771 159.269,44.402 159.325,44.331 159.616,43.966 159.673,43.896 159.968,43.535 160.026,43.465 160.324,43.108 160.383,43.039 160.685,42.686 160.745,42.618 161.051,42.270 161.111,42.202 161.421,41.858 161.482,41.791 161.795,41.451 161.857,41.385 162.174,41.049 162.237,40.984 162.558,40.653 162.621,40.588 162.945,40.261 163.009,40.198 163.337,39.875 163.402,39.812 163.733,39.494 163.798,39.432 164.132,39.119 164.199,39.057 164.536,38.748 164.603,38.688 164.944,38.384 165.012,38.324 165.355,38.024 165.424,37.965 165.771,37.670 165.840,37.612 166.190,37.322 166.260,37.264 166.612,36.979 166.683,36.922 167.038,36.641 167.110,36.586 167.468,36.310 167.540,36.255 167.901,35.983 167.974,35.929 168.337,35.663 168.411,35.610 168.777,35.348 168.851,35.296 169.220,35.039 169.294,34.988 169.666,34.736 169.741,34.686 170.114,34.439 170.190,34.389 170.566,34.147 170.643,34.099 171.021,33.861 171.098,33.814 171.478,33.582 171.556,33.535 171.939,33.308 172.017,33.262 172.402,33.040 172.480,32.995 172.867,32.778 172.946,32.734 173.335,32.522 173.415,32.479 173.805,32.272 173.886,32.230 174.278,32.028 174.359,31.987 174.753,31.790 174.834,31.750 175.230,31.558 175.312,31.519 175.710,31.333 175.792,31.295 176.191,31.113 176.274,31.076 176.674,30.900 176.757,30.864 177.159,30.692 177.243,30.657 177.646,30.491 177.730,30.457 178.135,30.296 178.220,30.263 178.625,30.107 178.710,30.075 179.117,29.925 179.203,29.894 179.611,29.748 179.696,29.718 180.106,29.578 180.192,29.549 180.602,29.414 180.688,29.386 181.099,29.257 181.186,29.230 181.598,29.105 181.685,29.079 182.098,28.960 182.185,28.935 182.598,28.821 182.686,28.797 183.100,28.688 183.188,28.666 183.602,28.562 183.691,28.540 184.106,28.441 184.194,28.421 184.610,28.328 184.699,28.308 185.115,28.220 185.204,28.202 185.620,28.118 185.709,28.101 186.126,28.023 186.215,28.007 186.632,27.934 186.721,27.919 187.138,27.852 187.228,27.838 187.645,27.775 187.735,27.762 188.152,27.705 188.242,27.693 188.659,27.641 188.749,27.630 189.166,27.583 189.256,27.574 189.673,27.532 189.763,27.523 190.180,27.487 190.270,27.479 190.686,27.448 190.777,27.441 191.193,27.415 191.283,27.409 191.699,27.388 191.789,27.384 192.204,27.367 192.295,27.364 192.709,27.353 192.800,27.351 193.214,27.345 193.304,27.344 193.717,27.342 193.808,27.343 194.220,27.346 194.311,27.348 194.723,27.356 194.814,27.359 195.224,27.372 195.315,27.376 195.725,27.395 195.815,27.399 196.224,27.423 196.315,27.429 196.722,27.457 196.813,27.464 197.219,27.497 197.310,27.505 197.715,27.543 197.806,27.552 198.210,27.595 198.300,27.605 198.703,27.653 198.793,27.664 199.195,27.717 199.285,27.729 199.685,27.787 199.775,27.800 200.174,27.862 200.264,27.877 200.661,27.944 200.750,27.959 201.146,28.031 201.235,28.047 201.629,28.124 201.719,28.141 202.111,28.222 202.200,28.241 202.591,28.326 202.679,28.346 203.068,28.436 203.157,28.457 203.544,28.552 203.632,28.574 204.017,28.673 204.105,28.696 204.488,28.800 204.576,28.824 204.957,28.932 205.045,28.957 205.424,29.070 205.511,29.096 205.888,29.213 205.975,29.240 206.350,29.361 206.437,29.390 206.809,29.515 206.896,29.545 207.266,29.674 207.352,29.705 207.720,29.839 207.806,29.871 208.171,30.009 208.257,30.041 208.620,30.184 208.705,30.217 209.066,30.364 209.150,30.399 209.509,30.549 209.593,30.585 209.949,30.739 210.032,30.776 210.386,30.935 210.468,30.973 210.819,31.135 210.902,31.174 211.250,31.341 211.332,31.380 211.678,31.551 211.759,31.592 212.102,31.766 212.183,31.808 212.523,31.986 212.604,32.029 212.941,32.211 213.021,32.254 213.355,32.440 213.435,32.485 213.766,32.674 213.845,32.720 214.173,32.913 214.252,32.960 214.577,33.156 214.655,33.204 214.977,33.404 215.055,33.453 215.374,33.656 215.451,33.706 215.767,33.913 215.843,33.963 216.156,34.174 216.232,34.225 216.541,34.439 216.616,34.492 216.923,34.709 216.997,34.762 217.301,34.983 217.374,35.037 217.674,35.261 217.747,35.316 218.044,35.543 218.116,35.599 218.410,35.829 218.481,35.886 218.771,36.119 218.842,36.177 219.129,36.413 219.199,36.472 219.482,36.711 219.551,36.770 219.831,37.013 219.900,37.073 220.176,37.318 220.244,37.379 220.517,37.627 220.584,37.689 220.853,37.940 220.919,38.003 221.185,38.256 221.250,38.320 221.512,38.576 221.577,38.641 221.835,38.900 221.900,38.965 222.154,39.227 222.217,39.293 222.468,39.557 222.531,39.623 222.778,39.890 222.840,39.958 223.083,40.227 223.144,40.295 223.383,40.567 223.443,40.636 223.679,40.909 223.738,40.979 223.970,41.255 224.029,41.326 224.257,41.604 224.314,41.675 224.538,41.956 224.595,42.028 224.815,42.311 224.871,42.383 225.087,42.668 225.142,42.741 225.355,43.028 225.409,43.102 225.617,43.391 225.670,43.466 225.875,43.757 225.927,43.832 226.128,44.125 226.179,44.201 226.375,44.495 226.426,44.572 226.618,44.868 226.668,44.945 226.856,45.243 226.905,45.321 227.089,45.621 227.137,45.699 227.317,46.000 227.364,46.079 227.540,46.382 227.586,46.462 227.758,46.766 227.803,46.846 227.971,47.152 228.015,47.232 228.179,47.540 228.222,47.621 228.382,47.929 228.423,48.011 228.579,48.321 228.620,48.403 228.772,48.714 228.812,48.797 228.959,49.109 228.998,49.192 229.141,49.506 229.179,49.589 229.318,49.904 229.355,49.988 229.490,50.303 229.526,50.388 229.657,50.704 229.692,50.789 229.819,51.107 229.852,51.192 229.975,51.510 230.008,51.596 230.126,51.915 230.158,52.002 230.272,52.321 230.302,52.408 230.413,52.728 230.442,52.816 230.548,53.137 230.577,53.224 230.679,53.546 230.706,53.634 230.804,53.956 230.830,54.044 230.923,54.366 230.948,54.455 231.038,54.778 231.062,54.867 231.147,55.190 231.170,55.279 231.251,55.603 231.273,55.693 231.350,56.017 231.371,56.106 231.444,56.430 231.463,56.520 231.532,56.845 231.551,56.935 231.615,57.259 231.633,57.350 231.693,57.674 231.710,57.765 231.766,58.090 231.781,58.180 231.834,58.505 231.848,58.596 231.896,58.920 231.909,59.012 231.953,59.336 231.965,59.427 232.005,59.751 232.016,59.843 232.052,60.167 232.061,60.258 232.093,60.582 232.102,60.674 232.129,60.997 232.137,61.089 232.161,61.412 232.167,61.504 232.187,61.826 232.192,61.918 232.208,62.240 232.212,62.332 232.223,62.653 232.226,62.746 232.234,63.066 232.236,63.158 232.240,63.478 232.240,63.571 232.240,63.890 232.240,63.982 232.236,64.301 232.234,64.393 232.226,64.711 232.224,64.803 232.212,65.120 232.208,65.213 232.192,65.529 232.187,65.621 232.168,65.936 232.161,66.028 232.138,66.342 232.131,66.434 232.104,66.747 232.095,66.839 232.064,67.152 232.055,67.243 232.020,67.554 232.009,67.646 231.971,67.956 231.959,68.048 231.917,68.356 231.904,68.448 231.858,68.755 231.844,68.846 231.795,69.152 231.779,69.244 231.726,69.548 231.710,69.639 231.653,69.943 231.636,70.033 231.575,70.335 224.221,68.866 224.190,70.113 224.098,71.356 223.946,72.593 223.732,73.822 223.459,75.038 223.127,76.240 222.736,77.423 222.287,78.586 221.782,79.726 221.221,80.840 220.607,81.925 219.940,82.978 219.222,83.997 218.455,84.980 217.641,85.924 216.781,86.827 215.878,87.686 214.934,88.501 213.951,89.268 212.932,89.986 211.879,90.653 210.794,91.267 209.680,91.828 208.541,92.333 207.378,92.782 206.194,93.173 204.992,93.505 203.776,93.778 202.548,93.991 201.310,94.144 200.067,94.236 198.821,94.266 197.574,94.236 196.331,94.144 195.094,93.991 193.865,93.778 192.649,93.505 191.447,93.173 190.264,92.782 189.100,92.333 187.961,91.828 186.847,91.267 185.762,90.653 184.709,89.986 183.690,89.268 182.707,88.501 181.763,87.686 180.860,86.827 180.000,85.924 179.186,84.980 178.419,83.997 177.701,82.978 177.034,81.925 176.420,80.840 175.859,79.726 175.354,78.586 174.905,77.423 174.514,76.240 174.182,75.038 173.909,73.822 173.695,72.593 173.543,71.356 173.451,70.113 173.421,68.866 173.451,67.620 173.543,66.377 173.695,65.139 173.909,63.911 174.182,62.695 174.514,61.493 174.905,60.309 175.354,59.146 175.859,58.006 176.420,56.893 177.034,55.808 177.701,54.755 178.419,53.736 179.186,52.753 180.000,51.809 180.860,50.906 181.763,50.046 182.707,49.232 183.690,48.465 184.709,47.747 185.762,47.080 186.847,46.466 187.961,45.905 189.100,45.400 190.264,44.951 191.447,44.560 192.649,44.228 193.865,43.954 195.094,43.741 196.331,43.589 197.574,43.497 198.821,43.466 200.067,43.497 201.310,43.589 201.768,43.645 201.698,43.621" fill="none" stroke="#b03020" stroke-width="0.3"/>
</svg>