<svg xmlns="http://www.w3.org/2000/svg" width="284.1mm" height="76.0mm" viewBox="0 0 284.1 76.0">
<rect x="0" y="0" width="284.1" height="76.0" fill="white"/>
<title>orpot ribs: disc Ø127.0mm, hub Ø50.8mm, ramp 12.7mm x2, 1 turn(s), 4 ribs</title>
<polyline points="10.000,58.000 10.000,54.000 10.000,41.300 20.000,41.300 31.465,41.300 33.877,37.500 42.500,37.500 42.500,23.921 48.800,14.000 56.500,14.000 56.500,10.000 66.500,10.000 66.500,26.700 61.500,26.700 61.500,54.000 20.000,54.000 20.000,58.000 10.000,58.000" fill="none" stroke="#b03020" stroke-width="0.3"/>
<polyline points="89.200,58.000 79.200,58.000 79.200,54.000 79.200,41.300 89.200,41.300 100.665,41.300 118.000,14.000 125.700,14.000 125.700,10.000 135.700,10.000 135.700,26.700 130.700,26.700 130.700,54.000 89.200,54.000 89.200,58.000" fill="none" stroke="#b03020" stroke-width="0.3"/>
<polyline points="148.400,58.000 148.400,54.000 148.400,41.300 158.400,41.300 169.865,41.300 172.278,37.500 180.900,37.500 180.900,23.921 187.200,14.000 194.900,14.000 194.900,10.000 204.900,10.000 204.900,26.700 199.900,26.700 199.900,54.000 158.400,54.000 158.400,58.000 148.400,58.000" fill="none" stroke="#b03020" stroke-width="0.3"/>
<polyline points="227.600,58.000 217.600,58.000 217.600,54.000 217.600,41.300 227.600,41.300 239.065,41.300 256.400,14.000 264.100,14.000 264.100,10.000 274.100,10.000 274.100,26.700 269.100,26.700 269.100,54.000 227.600,54.000 227.600,58.000" fill="none" stroke="#b03020" stroke-width="0.3"/>
</svg>